<?xml version="1.0" encoding="UTF-8"?>
<svg version="1.1" xmlns="http://www.w3.org/2000/svg" width="64" height="64">
<path d="M0 0 C0.886875 -0.00257812 1.77375 -0.00515625 2.6875 -0.0078125 C5 0.125 5 0.125 7 1.125 C7 4.095 7 7.065 7 10.125 C10.3 10.125 13.6 10.125 17 10.125 C17 16.065 17 22.005 17 28.125 C15.02 28.125 13.04 28.125 11 28.125 C11 29.115 11 30.105 11 31.125 C10.34 31.125 9.68 31.125 9 31.125 C9 34.755 9 38.385 9 42.125 C6.69 42.125 4.38 42.125 2 42.125 C2 38.495 2 34.865 2 31.125 C0.68 31.125 -0.64 31.125 -2 31.125 C-2 34.755 -2 38.385 -2 42.125 C-4.31 42.125 -6.62 42.125 -9 42.125 C-9 38.495 -9 34.865 -9 31.125 C-9.66 31.125 -10.32 31.125 -11 31.125 C-11 30.135 -11 29.145 -11 28.125 C-12.98 28.125 -14.96 28.125 -17 28.125 C-17 22.185 -17 16.245 -17 10.125 C-13.7 10.125 -10.4 10.125 -7 10.125 C-7 7.155 -7 4.185 -7 1.125 C-4.51245214 -0.11877393 -2.77344699 -0.00806235 0 0 Z " fill="#FDF8CB" transform="translate(32,14.875)"/>
<path d="M0 0 C0.886875 -0.00257812 1.77375 -0.00515625 2.6875 -0.0078125 C5 0.125 5 0.125 7 1.125 C7 4.095 7 7.065 7 10.125 C5.33388095 10.167721 3.66617115 10.16563832 2 10.125 C1.67 9.795 1.34 9.465 1 9.125 C1 9.455 1 9.785 1 10.125 C-0.65 10.455 -2.3 10.785 -4 11.125 C-4 11.785 -4 12.445 -4 13.125 C-4.99 12.795 -5.98 12.465 -7 12.125 C-7 8.495 -7 4.865 -7 1.125 C-4.51245214 -0.11877393 -2.77344699 -0.00806235 0 0 Z " fill="#E6C200" transform="translate(32,14.875)"/>
<path d="M0 0 C2.31 0 4.62 0 7 0 C7 3.63 7 7.26 7 11 C4.69 11 2.38 11 0 11 C0 7.37 0 3.74 0 0 Z " fill="#FFD700" transform="translate(34,46)"/>
<path d="M0 0 C2.31 0 4.62 0 7 0 C7 3.63 7 7.26 7 11 C4.69 11 2.38 11 0 11 C0 7.37 0 3.74 0 0 Z " fill="#FFD700" transform="translate(23,46)"/>
<path d="M0 0 C0.33 0.99 0.66 1.98 1 3 C0.67 3.66 0.34 4.32 0 5 C1.4540625 5.4021875 1.4540625 5.4021875 2.9375 5.8125 C3.948125 6.204375 4.95875 6.59625 6 7 C6.33 7.99 6.66 8.98 7 10 C6.34 10 5.68 10 5 10 C4.67 9.67 4.34 9.34 4 9 C4 9.33 4 9.66 4 10 C2.35 10.33 0.7 10.66 -1 11 C-1 11.66 -1 12.32 -1 13 C-1.99 12.67 -2.98 12.34 -4 12 C-4 8.37 -4 4.74 -4 1 C-2 0 -2 0 0 0 Z " fill="#D6B500" transform="translate(29,15)"/>
<path d="M0 0 C1.98 0 3.96 0 6 0 C6 3.63 6 7.26 6 11 C4.02 11 2.04 11 0 11 C0 7.37 0 3.74 0 0 Z " fill="#FFD700" transform="translate(43,32)"/>
<path d="M0 0 C1.98 0 3.96 0 6 0 C6 3.63 6 7.26 6 11 C4.02 11 2.04 11 0 11 C0 7.37 0 3.74 0 0 Z " fill="#FFD700" transform="translate(15,32)"/>
<path d="M0 0 C3.0831351 1.19899698 6.06279492 2.47700477 9 4 C9 4.66 9 5.32 9 6 C8.34 6 7.68 6 7 6 C6.67 5.67 6.34 5.34 6 5 C5.01 5.33 4.02 5.66 3 6 C0.8125 4.5625 0.8125 4.5625 -1 3 C-0.67 2.01 -0.34 1.02 0 0 Z " fill="#3D1717" transform="translate(27,19)"/>
<path d="M0 0 C2.475 0.99 2.475 0.99 5 2 C4.34 3.32 3.68 4.64 3 6 C2.01 5.67 1.02 5.34 0 5 C0 3.35 0 1.7 0 0 Z " fill="#DC9314" transform="translate(25,22)"/>
</svg>
